<svg width="22" height="22" viewBox="0 0 22 22" fill="none" xmlns="http://www.w3.org/2000/svg">
<path d="M16.5002 6.56338C16.4452 6.55421 16.3811 6.55421 16.3261 6.56338C15.0611 6.51754 14.0527 5.48171 14.0527 4.19838C14.0527 2.88754 15.1069 1.83337 16.4177 1.83337C17.7286 1.83337 18.7827 2.89671 18.7827 4.19838C18.7736 5.48171 17.7652 6.51754 16.5002 6.56338Z" stroke="#0F2038" stroke-width="1.5" stroke-linecap="round" stroke-linejoin="round"/>
<path d="M15.5558 13.2367C16.8117 13.4476 18.1958 13.2276 19.1675 12.5767C20.46 11.7151 20.46 10.3034 19.1675 9.44173C18.1867 8.7909 16.7842 8.57089 15.5283 8.79089" stroke="#0F2038" stroke-width="1.5" stroke-linecap="round" stroke-linejoin="round"/>
<path d="M5.47293 6.5635C5.52793 6.55433 5.5921 6.55433 5.6471 6.5635C6.9121 6.51767 7.92043 5.48183 7.92043 4.1985C7.92043 2.88766 6.86626 1.8335 5.55543 1.8335C4.2446 1.8335 3.19043 2.89683 3.19043 4.1985C3.1996 5.48183 4.20793 6.51767 5.47293 6.5635Z" stroke="#0F2038" stroke-width="1.5" stroke-linecap="round" stroke-linejoin="round"/>
<path d="M6.41698 13.2369C5.16114 13.4477 3.77698 13.2277 2.80531 12.5769C1.51281 11.7152 1.51281 10.3035 2.80531 9.44186C3.78615 8.79102 5.18864 8.57102 6.44448 8.79102" stroke="#0F2038" stroke-width="1.5" stroke-linecap="round" stroke-linejoin="round"/>
<path d="M11.0002 13.4108C10.9452 13.4016 10.8811 13.4016 10.8261 13.4108C9.56107 13.365 8.55273 12.3291 8.55273 11.0458C8.55273 9.73495 9.6069 8.68079 10.9177 8.68079C12.2286 8.68079 13.2827 9.74412 13.2827 11.0458C13.2736 12.3291 12.2652 13.3741 11.0002 13.4108Z" stroke="#0F2038" stroke-width="1.5" stroke-linecap="round" stroke-linejoin="round"/>
<path d="M8.33266 16.2983C7.04016 17.16 7.04016 18.5717 8.33266 19.4333C9.79932 20.4142 12.201 20.4142 13.6677 19.4333C14.9602 18.5717 14.9602 17.16 13.6677 16.2983C12.2102 15.3267 9.79932 15.3267 8.33266 16.2983Z" stroke="#0F2038" stroke-width="1.5" stroke-linecap="round" stroke-linejoin="round"/>
</svg>
